<?xml version="1.0" encoding="UTF-8"?>
<svg id="Layer_1" data-name="Layer 1" xmlns="http://www.w3.org/2000/svg" viewBox="0 0 981.67 934.93">
  <defs>
    <style>
      .cls-1 {
        fill: #fff;
      }
    </style>
  </defs>
  <path class="cls-1" d="M440.09,648.68H192.85v-44.66c-3.69,1.34-7.54,2.44-11.58,3.26v52.96H439.77c-.15-3.9-.03-7.76,.32-11.57"/>
  <path class="cls-1" d="M192.84,450.51V192.82h455.84v148.86c3.62-2.01,7.49-3.68,11.57-5.02V181.25H181.26V450.45c.95-.01,1.87-.06,2.82-.06,3.06,0,5.95,.05,8.76,.11"/>
  <path class="cls-1" d="M655.66,682.21c-9.21-3.17-14.28-4.23-19.22-7.51-11.41-7.6-10.4-16.45-6.65-28.32,.9-2.83,1.82-5.78,2.64-8.93,3.28-12.76-3.29-24.18-17.16-29.8-2.27-.92-6.7-2.36-12.03-2.47-2.27-.05-4.71,.14-7.2,.74-1.76,.42-3.53,1.05-5.31,1.9-1.72,.83-3.44,1.9-5.12,3.22-3.26,2.55-6.41,6.06-9.23,10.98-1.09,1.91-2.04,3.77-3.02,5.65-.23,.44-.5,.91-.72,1.36-6.07,12.03-9.56,23.42-10.83,35.29-.72,6.8-.79,13.75-.08,21.12,.22,2.3,.52,4.43,.86,6.41,.65,3.75,1.51,6.95,2.47,9.7,.54,1.56,1.12,2.99,1.71,4.26,.09,.14,.2,.27,.29,.42,.13,.21,.2,.44,.23,.67,2.93,5.88,6.07,8.47,7.19,9.26,.1-.12,.21-.25,.32-.37,.35-.42,.71-.84,1.09-1.28,3.26-3.72,3.24-3.86,2.46-11.33l-.17-1.65c-.04-.42-.03-.79-.06-1.19-.29-4.74,.49-8.66,1.43-11.25,.8-2.2,1.69-3.47,2.06-3.31-.09,1.02-.1,2.01-.09,2.98,.05,4.15,.82,7.98,1.56,11.52,1.41,6.79,2.68,12.53-1.73,17.45-.37,.42-.72,.84-1.06,1.24-3.36,3.97-9.26,6.34-18.64,3.24-7.34-2.42-17.46-2.85-21.88,3.92-1.31,2.02-2.22,3.71-2.77,5.12-.6,1.54-.76,2.74-.43,3.54,.34,.88,1.44,1.53,3.22,1.93,2.58,.57,4.64,.8,6.82,1.03,1.6,.17,3.3,.35,5.35,.7,2.05,.34,4.44,.85,7.42,1.66,.66,.18,1.27,.32,1.89,.48,.15,.04,.31,.09,.45,.12,7.75,1.92,13.31,2.15,23.48-.59,1.06-.29,2.03-.58,2.98-.88,8.57-2.67,12.98-5.74,21.54-9.7,2.53-1.17,4.84-3.65,6.88-6.62,2.86-4.13,5.19-9.2,6.84-13.12,.66-1.55,1.22-2.93,1.66-3.97,.56-1.31,.93-2.12,1.1-2.14,.24-.02,.24,1.73-.06,4.36-.11,.85-.24,1.81-.42,2.82-.55,3.29-1.48,7.25-2.91,10.98-1.9,4.96-4.66,9.48-8.55,11.28-2.86,1.32-5.54,2.48-8.17,3.55,.72,.24,1.41,.44,2.12,.67,6.29,2.05,12.28,3.63,18.04,4.85,18.55-8.9,34.51-34.99,29.41-60m-69.02-66.83c.42-.23,.85-.42,1.29-.57,1.98-.72,3.99-.64,5.45-.25,1.03,.29,1.79,.72,2.02,1.15,.32,.58-.47,.74-1.82,1.02-1.32,.27-3.17,.67-5.02,1.71-.09,.05-.19,.1-.27,.16-3.58,2.04-6.05,4.09-6.68,2.97-.65-1.16,1.29-4.09,5.02-6.18m19.95,18.15c-.03,.13-.06,.26-.09,.39,.99,1.08,5.77,6.54,5.84,10.88-2.66-4.09-5.51-6.63-6.78-7.66-.08,.24-.16,.47-.24,.7,.88,1.4,4.5,7.46,3.83,11.67-2.02-4.72-4.49-7.75-5.48-8.86-1.39,1.72-3.17,2.86-5.02,3.33,.72,.89,1.04,1.85,.75,2.7-.1,.29-.35,.5-.58,.72-1.03,1.03-3.14,1.3-5.46,.64-.19-.05-.37-.06-.57-.13-3.03-1.06-4.99-3.34-4.38-5.09,.3-.85,1.16-1.41,2.31-1.66-.83-1.29-1.3-3-1.23-5.12-1.71,.38-5.21,1.36-9.23,3.68,1.85-3.48,7.58-6.03,9.66-6.87,.04-.21,.1-.42,.16-.64,.02-.06,.04-.14,.05-.21-.02,0-.06,0-.09,0-1.83,.11-5.34,.5-9.5,2.02,1.97-2.54,6.35-4,9.1-4.71,.59-.15,1.13-.29,1.53-.37,.09-.19,.16-.37,.25-.57-.55-.09-1.21-.17-1.95-.25-1.88-.19-4.33-.29-7.18,0,1.73-1.35,4.44-1.94,6.89-2.19,1.6-.16,3.1-.18,4.13-.15,.37-.35,.79-.63,1.23-.86,.24-.14,.48-.27,.75-.35,.01,0,.04-.01,.06-.01-.44-.39-.77-.77-1.01-1.16-.3-.5-.44-.98-.32-1.43,.02-.09,.09-.16,.13-.24,.75-1.59,4.38-2.07,8.44-1.02,4.26,1.11,7.35,3.45,6.9,5.24-.27,1.03-1.66,1.64-3.59,1.77,.64,.83,.93,1.72,1,2.65,2.02,1.42,6.63,5,7.61,8.64-3.2-2.96-6.24-4.69-7.91-5.52m17.13-1.78c-.98,4.36-4.43,2.27-6.1-2.02-1.66-4.3-3.97-7.1-3.62-8.67,0,0,2.76-1,6.16,1.7,2.12,1.69,4.53,4.62,3.56,8.98"/>
  <path class="cls-1" d="M732.49,729.72c2.55-1.46,7.96-.56,10.26,.6-.14-2.92-1.08-4.32-7.49-5.4-6.12-1.03-9.25-2.32-12.25-4.5-2.6-1.88-8.82-9.96-18.69-10.98-5.84,6.6-19.83,28.53-42.96,35.3,12.41-.88,24.37-2.56,30.64-4.61,4.17-1.36,7.86-2.85,11.06-4.34,7.47-3.47,12.31-6.87,14.49-8.39,.82-.57,1.28-.88,1.34-.82,.32,.31,.56,1.41,.27,2.75-.29,1.37-1.13,2.98-2.99,4.28,2.91,.04,5.32,.29,8.39,1.19,1.55,.46,3.26,1.06,5.29,1.9,.7,.29,1.46,.63,2.25,.99,4.61,2.09,8.43,3.54,11.03,1.93,.48-.29,.93-.66,1.32-1.18,.74-.98,.61-1.64,.42-2.1-.88-2.14-6.55-6.23-12.39-6.61"/>
  <path class="cls-1" d="M700.35,355.21c-2.13,1.24-3.49,3.65-3.06,5.4,.44,1.74,2.53,2.14,4.65,.9,.15-.09,.27-.22,.41-.32-.98-.37-1.74-1.18-2.05-2.39-.3-1.18-.09-2.5,.44-3.74-.14,.06-.25,.07-.39,.15"/>
  <path class="cls-1" d="M727.56,594.98c-12.79-10.4-27.5-19.5-36.69-33.26-8.44-12.63-14.12-26.83-20.98-40.32-5.35-10.5-9.16-18.25-13.03-25.21-.3-.54-.6-1.09-.9-1.62-1.64,.94-3.85,.83-6.13-.11-2.02-.85-4.08-2.36-5.87-4.45-.09-.11-.19-.19-.27-.29-4.09-4.97-4.93-11.03-1.89-13.53,.39-.32,.85-.55,1.32-.72-10.49-13.42-22.28-18.82-36.14-18.49-1.43,.04-2.83,.09-4.23,.15-2.66,.11-5.24,.24-7.77,.36-9.41,.45-17.82,.67-24.44-1.87,0,0,2.74,7.15,20.33,8.11,.55,.03,1.08,.07,1.66,.09,.2,0,.39,.03,.6,.04-.05,.02-.11,.03-.16,.04-1.41,.57-2.52,1.39-3.41,2.25-1.99,1.9-2.81,3.98-2.81,3.98,0,0,.22,.16,.54,.37,1.05,.71,3.59,2.38,6.56,4.05,.9,.5,1.83,1,2.77,1.48,4.98,2.48,12.81-2.14,12.81-2.14,0,0-2.72,.75-6.18,.6,.77-.39,1.36-1.01,1.5-1.94,.34-2.3-1.72-5.24-4.63-6.56-.18-.08-.34-.09-.52-.15,.84,1.53,1.28,3.21,1.05,4.77-.22,1.43-.97,2.46-1.99,3.1-1.33-.42-2.65-1.05-3.89-1.96-1.19-.88-2.3-2.02-3.23-3.49,1.69-2.3,3.95-3.49,6.01-4.15,.19,.01,.36,.04,.55,.06,3.53,.31,7.07,.82,10.51,1.71,15.12,3.93,22.69,15.33,24.86,30.31,3.86,26.71-2.98,56.24,9.18,81.13-1.77-9.49-2.77-25.31,.23-38.04,7.15,45.42,32.05,70.64,43.34,76.16,7.5,3.66,12.23,11.37,5.52,18.26-6.65,6.84-13.97,12.52-18.12,21.34-1.29,2.76-2.25,5.65-3.09,8.57-.11-8.19,.55-16.39,2.68-22.82-10.72,17.32-9.09,44.22-7.8,55.52-1.94,11.64-6.38,26.53-18.91,40.23,14.68-1.61,28.2-12.91,39.07-25.43,7.74-14.44,17.72-34.97,22.64-52.89-.74,11.27-2.82,21.18-5.17,29.27,3.01-4.64,5.32-8.45,6.81-10.73,4.93-7.48,9.33-16.35,8.49-25.56-.49-5.29-2.94-11.1-.29-16.2,3.02-5.81,8.7-3.19,12.35,.68,4.26,4.53,8.16,9.28,13.19,13.25,6.16,4.86,14,8.57,26.36,9.31,16.89,1.03,27.09-7.68,53.87-9.89-18.64-14.47-41.18-12.54-59.96-24.32-13.52-8.49-24.06-19.08-36.31-29.04"/>
  <path class="cls-1" d="M921.87,746.03c-6.06-13.33-15.74-23.1-30.49-30.74-3.67-1.9-7.12-2.97-9.89-3.83-5.88-1.82-6.95-2.15-5.32-16.97,2.5-22.65-8.22-43.11-30.16-57.61-12.25-8.11-25.97-12.01-39.25-15.78-7.1-2.02-13.8-3.92-20.13-6.4-2.9-1.13-5.76-2.38-8.63-3.67-6.56-2.95-13.27-6.65-19.42-10.69-6.51-4.28-12.28-8.85-17.04-13.47-.03-.04-.27-.26-.29-.29-2.07-2.02-4.18-4.21-6.62-6.9-.62-17.61,2.47-35.82,5.46-53.47,2.25-13.22,4.36-25.69,4.89-37.56,.44-9.97-.23-20.71-2.01-31.91-.97-6.11-2.8-12.34-4.57-18.35-4.99-16.94-7.53-27.87-.83-36.76,.63-.85,1.44-1.61,2.92-2.97,.6-.55,1.22-1.13,1.88-1.76,11.09-10.59,17.33-21.58,18.55-32.67,.14-1.31,.22-2.51,.27-3.59,2.36-3.98,3.45-8.77,2.89-13.18-.47-3.79-2.1-7.14-4.7-9.68-2.78-2.71-6.51-4.32-10.77-4.66-1.6-.13-3.14,.13-4.55,.72-1.19-.26-2.44-.29-3.67-.09-1.32,.22-2.65,.36-4.01,.45-1.07,.06-2.16,.1-3.29,.1h-1.18c-2-.05-4.12-.17-6.44-.36-4.75-.39-10.34-1.08-17.42-1.94l-.61-.07c-6.19-.76-13.54-1.54-21.12-1.54s-13.99,.73-20.21,2.23c-21.47,5.17-37.72,19.77-44.58,40.08-2.96,8.77-4.38,17.61-5.75,26.16-.77,4.82-1.5,9.37-2.48,13.86-.75,3.44-3.3,9.81-11.18,20.69-1.84,2.54-3.91,5.24-6.18,8.06-2.53,.32-5.29,.49-8.24,.52h-.97c-1.28,0-2.54-.02-3.74-.07-.77-.03-1.54-.06-2.29-.1-1.49-.09-2.92-.19-4.25-.32-3.85-.36-6.9-.8-8.85-1.1-1.32-.21-2.62-.46-3.87-.75-.67-.16-1.35-.24-2.02-.25-.57-.34-1.18-.62-1.82-.85l-.4-.12c-3.77-1.36-7.4-1.51-10.62-.47-3.65,1.19-6.56,3.83-8.21,7.45-.41,.93-.74,1.84-.98,2.67-.27,.94-.44,1.87-.56,2.74-.22,1.78-.17,3.59,.14,5.45,.14,.82,.34,1.62,.59,2.41,.29,.95,.67,1.88,1.19,2.95-2.47,4.19-3.36,8.88-2.6,13.68,2.14,13.46,16.98,24.22,27.08,31.42-1.33,9.82-8.55,17.74-13.13,21.86-8.22,7.39-18.54,13.61-27.65,19.11l-.93,.55c-5.83,3.52-11.86,7.15-17.56,11.05-8.64,5.9-16.07,11.47-22.71,17.01-13.47,11.24-24.16,22.78-32.71,35.3-2.77,4.06-5.16,8.42-7.1,12.99-5.41,12.67-7.45,27.05-5.93,41.59,.19,1.78,.4,3.59,.63,5.41,1.99,16.46,1.99,24.21-6.56,29.17-.67,.38-3.08,1.34-5.02,2.12-13.85,5.57-42.68,17.18-52.53,43.78-1.41,3.85-.31,8.17,2.78,10.85,3.09,2.68,7.52,3.17,11.13,1.23,10.91-5.88,19.27-7.1,28.48-7.1,2.21,0,4.38,.06,6.54,.13,2.32,.07,4.62,.14,6.94,.14,5.8,0,10.45-.42,15.07-1.38,9.29-1.91,17.1-6.03,22.86-11.72,4.89,7.28,11.67,12.74,20.1,16.03,8.72,3.4,18.81,4.61,29.48,3.57,3.19-.32,6.16-.95,9.05-1.56,4.23-.9,8.24-1.68,11.09-1.16,2.3,.43,4.56,.88,6.82,1.33,9.03,1.79,18.39,3.64,28.1,3.64,6.12,0,11.77-.72,17.31-2.21,4.12-1.1,7.76-2.18,11.21-3.31,6.69,2.22,13.33,4.06,19.78,5.51,11.76,2.62,23.34,4.01,34.42,4.13h1.62c13.11,.01,25.56-1.75,37.02-5.24,4.44-1.35,8.84-3.04,13.39-5.14,5.46,.96,11.14,1.62,17.25,1.99,.31,.01,.75,.04,1.29,.04h1.56c1.23,.49,2.61,1,4.09,1.46,2.99,.9,5.8,1.36,8.87,1.39,6.83,0,12.92-2.65,17.43-7.54,8.29,5.1,18.2,7.76,29.14,7.76,5.42,0,10.93-.67,16.34-2,10.04-2.46,19.41-7.07,27.06-13.35,.8-.65,1.6-1.35,2.37-2.04l.83-.72c1.58-1.41,3.08-2.76,4.43-3.63,1.08-.7,1.57-.93,2.31-.71,.55,.15,1.79,1.62,2.79,2.8,.98,1.17,1.98,2.33,3.09,3.44,4.98,4.94,11.01,8.65,17.92,11.01,6.56,2.22,12.71,2.51,17.36,2.51,2.25,0,4.49-.07,6.75-.16,2.04-.08,4.08-.16,6.13-.16,6.15,0,10.29,.75,14.31,2.56,3.73,1.69,8.12,.88,11.01-2.02,2.89-2.91,3.68-7.3,1.99-11.02m-54.39-1.04c-5.31-1.81-10.17-4.7-14.15-8.67-3.26-3.24-5.39-7.38-10.12-8.72-8.02-2.27-13.33,4.43-18.84,8.95-6.74,5.52-14.74,9.35-23.18,11.42-15.19,3.73-32.46,1.74-44.21-9.35,14.29,2.72,35.47-2.3,41.13-17.36-13.04,3.31-30.57,5.85-47.37,3.49,.7,1.74,1.05,3.61,1.15,5.53,.61,.83,1.1,1.7,1.47,2.6,1.51,3.67,.93,7.72-1.59,11.06-2.78,3.67-6.69,5.57-11.34,5.52-4.07-.05-7.88-1.58-10.91-2.93-1.36,.06-2.55,.09-3.34,.08-.32,0-.59-.01-.78-.03-6.44-.39-12.87-1.15-19.19-2.43-4.7,2.32-9.64,4.39-14.92,5.99-10.96,3.34-22.97,4.95-35.67,4.81-10.41-.11-21.3-1.43-32.39-3.9-7.14-1.59-14.51-3.71-21.92-6.29-4.2,1.47-8.62,2.82-13.77,4.21-16.32,4.38-31.65,.06-47.88-2.93-7.65-1.42-15.33,1.85-22.89,2.59-8.39,.82-17.05,.13-24.95-2.94-15.05-5.86-21.62-20.1-22.7-35.41,1.23,14.29-8.47,27.06-25.82,30.63-19.27,3.97-34.2-4.59-59.72,9.18,10.2-27.56,46.67-36.99,53.24-40.82,16.87-9.81,12.46-28.1,10.78-44.12-1.29-12.28,.2-25,5.19-36.7,1.66-3.9,3.72-7.68,6.18-11.29,13.97-20.47,32.55-35.85,52.85-49.74,15.35-10.5,33.31-19.05,47.17-31.52,7.75-6.97,17.37-19.08,16.55-34.09-9.23-6.93-35.26-22.76-25.26-36.31,8.21,6.92,15.52,8.11,19.1,7.48-12.25-5.15-16.26-10.81-18.22-13.56-.16-.22-.31-.45-.45-.68-.27-.41-.51-.83-.72-1.26-.29-.57-.54-1.13-.73-1.73-.11-.39-.22-.79-.29-1.2-.14-.81-.17-1.64-.06-2.5,.05-.42,.14-.85,.27-1.28,.11-.44,.28-.88,.48-1.32,.47-1.03,1.2-1.79,2.27-2.14,1.06-.34,2.46-.27,4.25,.37,.17,.06,.34,.11,.52,.17-.12,.31-.24,.62-.32,.95-.63,2.28-.34,4.96,2.53,7.46-.19-.65-.24-1.29-.17-1.92,.12-1.26,.7-2.46,1.49-3.55,.39-.55,.84-1.07,1.31-1.56,1.48,.34,3.01,.63,4.56,.88,4.66,.73,21.16,3.17,35.11,.48,13.61-16.44,19.98-27.84,21.72-35.77,2.83-12.97,3.66-26.33,7.94-38.97,5.9-17.45,19.89-29.4,37.56-33.66,12.45-3,25.25-2.03,37.83-.5,7.4,.9,13.33,1.63,18.42,2.05,2.54,.22,4.87,.34,7.07,.38,3.67,.06,6.96-.13,10.25-.67l.1,.09c.84,.7,1.62,1.46,2.27,2.32,.67,.88,1.17,1.84,1.39,2.88,.07,.34,.11,.69,.12,1.05,0,.36-.02,.72-.1,1.09,.34-.36,.64-.71,.9-1.07,.78-1.06,1.23-2.1,1.44-3.11,.14-.67,.17-1.33,.11-1.96-.05-.63-.19-1.23-.39-1.82,2.1,.17,3.64,.87,4.69,1.89,1.05,1.03,1.61,2.39,1.8,3.86,.37,2.95-.81,6.37-2.8,8.6-.14,1.44-.11,3.43-.38,5.88-1.15,10.48-8.16,19.54-15.56,26.62-2.42,2.31-4.25,3.77-5.87,5.93-13.96,18.55,.35,42.44,3.55,62.59,1.56,9.82,2.34,19.98,1.89,29.93-1.26,27.97-12.25,62.34-10.17,95.45,3.06,3.45,6.16,6.81,9.4,9.97,.07,.07,.14,.14,.21,.2,10.96,10.65,25.49,19.93,39.39,26.18,3.01,1.36,6.03,2.65,9.07,3.85,18.86,7.39,40.39,9.89,57.54,21.23,16.19,10.7,28.14,27.11,25.81,48.34-3.25,29.61,7.72,24,20.46,30.6,12.74,6.61,20.95,14.84,26.06,26.07-15.83-7.15-30.51-.04-45.43-5.11"/>
  <path class="cls-1" d="M531.11,658.47c9.43-3.31,21.29-8.06,30.51-27.64,11.68-31.66,32.77-36.42,32.77-36.42,0,0-3.74-9.87,.05-38.06,3.01-22.37-3.11-38.51-15.2-50.28,2.89,18.4-8.33,35.25-35.39,52.61-38.69,24.82-89.97,50.62-84.16,105.49,.47,4.36,10.45,29.35,9.13,31.31,8.64-12.81,20.13-21.09,34.25-26.9,15.5-6.37,27-14.96,39.77-29.47-1.03,5.84-5.11,13.75-11.75,19.36"/>
  <path class="cls-1" d="M648.73,467.1c9.88,9.15,16.14,21.88,21.78,33.89,.52,1.12,1.05,2.24,1.57,3.34,7.36,15.69,19.05,51.54,36.54,62.34-9.07-11.57-13.93-20.28-20.81-36.58-3.85-9.13-6.64-20.41-16.69-41.1-10.05-20.68-31.83-45.21-22.61-69.83,.98,16.8,8.16,28.58,16.27,35.73-13.97-24.85-11.99-52.71-7.16-63.16,3.68-7.96,8.5-14.51,15.62-20.56-4.05,10.39-1.66,14.91-1.66,14.91,0,0,2.2-11.67,8.07-17.79,5.86-6.13,9.92-7.49,12.87-11.75,2.23-3.24,12.36-6.6,19.79-.24-6.09,10.43-12.25,9.69-19.64,7.68,17.34,9.41,24.01-6.47,24.01-6.47,0,0-.98-1.94-3.08-3.71,7.81,1.26,19.77,.41,26.1-6.96-19.89,3.06-28.3,2.95-45.88,1.02-18.17-1.99-33.23,6.86-43.64,20.15,2.93,2.75,3.64,8.06,1.39,13.04-2.6,5.78-8.14,8.92-12.55,7.19-.3,.84-.62,1.67-.9,2.52-2.85,8.67-5.44,20.29-10.53,30.62-9.19,18.63-15.06,22.46-20.58,29.43,19.05-.34,29.68,7.03,36.84,12.26,1.69,1.23,3.31,2.57,4.89,4.03"/>
  <path class="cls-1" d="M161.67,506.98l-44.98-4.74c1.69-7.87,4.14-14.05,7.34-18.56,3.2-4.51,7.81-8.42,13.82-11.74,4.31-2.39,10.25-4.24,17.81-5.55,7.55-1.31,15.73-1.97,24.51-1.97,14.11,0,25.44,.79,33.99,2.37,8.56,1.58,15.69,4.87,21.4,9.89,4,3.47,7.17,8.38,9.49,14.74,2.31,6.36,3.47,12.43,3.47,18.21v54.23c0,5.78,.37,10.31,1.1,13.59,.73,3.28,2.33,7.46,4.8,12.54h-44.17c-1.77-3.16-2.93-5.56-3.47-7.23-.54-1.66-1.08-4.26-1.61-7.81-6.17,5.93-12.3,10.17-18.39,12.72-8.32,3.39-18,5.09-29.02,5.09-14.64,0-25.76-3.4-33.36-10.18-7.59-6.78-11.39-15.15-11.39-25.09,0-9.33,2.73-17,8.21-23.01,5.47-6.01,15.57-10.48,30.3-13.41,17.65-3.55,29.09-6.03,34.34-7.46,5.24-1.43,10.79-3.29,16.65-5.61,0-5.78-1.2-9.83-3.59-12.14-2.39-2.31-6.59-3.47-12.6-3.47-7.71,0-13.5,1.23-17.35,3.69-3.01,1.93-5.44,5.55-7.28,10.87m40.82,24.75c-6.48,2.31-13.22,4.36-20.23,6.13-9.56,2.55-15.61,5.05-18.16,7.52-2.62,2.55-3.93,5.43-3.93,8.67,0,3.7,1.29,6.73,3.88,9.08,2.58,2.35,6.37,3.52,11.39,3.52s10.12-1.27,14.63-3.82c4.51-2.55,7.71-5.65,9.59-9.31,1.89-3.66,2.83-8.42,2.83-14.28v-7.52Z"/>
  <rect class="cls-1" x="278.34" y="420.49" width="47.17" height="169.51"/>
  <path class="cls-1" d="M412.36,420.49v46.72h25.9v34.45h-25.9v43.51c0,5.24,.5,8.69,1.5,10.39,1.54,2.61,4.24,3.92,8.09,3.92,3.47,0,8.33-1,14.57-3l3.47,32.49c-11.64,2.54-22.51,3.82-32.61,3.82-11.72,0-20.36-1.51-25.9-4.51-5.55-3.01-9.66-7.56-12.32-13.68-2.65-6.12-3.99-16.04-3.99-29.74v-43.19h-17.34v-34.45h17.34v-22.55l47.18-24.17Z"/>
  <path class="cls-1" d="M218.62,271.63h29.91v40.41c2.95-3.39,6.32-5.93,10.08-7.63,3.75-1.7,7.92-2.55,12.48-2.55,9.41,0,17.19,3.7,23.35,11.1,6.16,7.4,9.24,18.02,9.24,31.86,0,9.22-1.41,17.35-4.22,24.38-2.81,7.03-6.71,12.28-11.68,15.75-4.98,3.47-10.49,5.21-16.56,5.21-5.19,0-9.94-1.22-14.26-3.67-3.25-1.9-6.79-5.49-10.62-10.74v12.48h-27.72v-116.61Zm29.68,74.13c0,7.26,1.24,12.53,3.75,15.79,2.5,3.27,5.66,4.89,9.5,4.89,3.54,0,6.51-1.6,8.91-4.81,2.4-3.21,3.61-8.61,3.61-16.19,0-6.68-1.18-11.58-3.53-14.71-2.35-3.13-5.21-4.69-8.55-4.69-4.02,0-7.31,1.63-9.86,4.89-2.55,3.27-3.82,8.2-3.82,14.83"/>
  <path class="cls-1" d="M344.86,331.13l-28.31-3.27c1.07-5.41,2.61-9.66,4.63-12.77,2.01-3.1,4.91-5.79,8.69-8.07,2.72-1.64,6.45-2.92,11.2-3.82,4.75-.9,9.89-1.35,15.43-1.35,8.87,0,16,.54,21.38,1.63,5.39,1.09,9.87,3.35,13.46,6.8,2.52,2.38,4.51,5.76,5.97,10.14,1.46,4.38,2.18,8.55,2.18,12.53v37.3c0,3.98,.23,7.09,.69,9.34,.46,2.26,1.47,5.13,3.02,8.63h-27.8c-1.11-2.18-1.84-3.84-2.18-4.98-.34-1.14-.68-2.92-1.01-5.37-3.88,4.09-7.74,7-11.57,8.75-5.24,2.33-11.33,3.5-18.27,3.5-9.22,0-16.22-2.34-20.99-7-4.78-4.66-7.17-10.42-7.17-17.26,0-6.41,1.72-11.69,5.17-15.83,3.44-4.13,9.8-7.2,19.07-9.22,11.11-2.44,18.3-4.15,21.61-5.13,3.3-.98,6.79-2.27,10.48-3.86,0-3.98-.76-6.77-2.26-8.36-1.5-1.58-4.15-2.38-7.92-2.38-4.86,0-8.49,.85-10.92,2.55-1.89,1.33-3.42,3.82-4.58,7.48m25.69,17.02c-4.07,1.58-8.32,2.99-12.74,4.21-6.01,1.75-9.82,3.47-11.43,5.17-1.64,1.75-2.47,3.74-2.47,5.97,0,2.55,.81,4.63,2.44,6.24,1.62,1.62,4.01,2.43,7.17,2.43s6.36-.87,9.2-2.62c2.84-1.75,4.86-3.89,6.04-6.4,1.18-2.52,1.78-5.8,1.78-9.83v-5.17Z"/>
  <path class="cls-1" d="M412.01,364.78l29.4-3.02c1.21,3.82,2.91,6.55,5.09,8.2,2.18,1.64,5.09,2.46,8.73,2.46,3.98,0,7.06-.92,9.24-2.78,1.7-1.38,2.55-3.1,2.55-5.16,0-2.32-1.12-4.13-3.35-5.41-1.6-.9-5.85-2.01-12.74-3.33-10.28-1.96-17.42-3.77-21.43-5.44-4-1.67-7.37-4.49-10.11-8.46-2.75-3.97-4.12-8.51-4.12-13.59,0-5.56,1.48-10.36,4.44-14.38,2.95-4.03,7.03-7.03,12.22-9.02,5.2-1.99,12.15-2.98,20.89-2.98,9.21,0,16.02,.77,20.41,2.3,4.39,1.54,8.05,3.93,10.99,7.16,2.93,3.24,5.38,7.61,7.32,13.13l-28.09,3.02c-.73-2.7-1.93-4.69-3.64-5.97-2.32-1.7-5.14-2.54-8.44-2.54s-5.78,.64-7.31,1.95c-1.53,1.3-2.3,2.87-2.3,4.72,0,2.07,.97,3.63,2.91,4.68,1.94,1.07,6.16,2.01,12.66,2.86,9.85,1.22,17.17,2.92,21.98,5.09,4.8,2.18,8.47,5.27,11.02,9.3,2.55,4.03,3.82,8.45,3.82,13.27s-1.34,9.62-4.04,14.22c-2.69,4.61-6.94,8.28-12.74,11.01-5.8,2.72-13.69,4.09-23.68,4.09-14.12,0-24.17-2.2-30.16-6.6-5.99-4.4-9.84-10.66-11.54-18.77"/>
  <path class="cls-1" d="M594.06,354.04h-59.37c.53,5.2,1.81,9.06,3.85,11.62,2.87,3.65,6.6,5.49,11.21,5.49,2.91,0,5.68-.8,8.29-2.39,1.6-1.01,3.32-2.78,5.16-5.33l29.19,2.95c-4.47,8.49-9.85,14.57-16.16,18.25-6.31,3.69-15.36,5.53-27.15,5.53-10.23,0-18.29-1.58-24.16-4.73-5.86-3.15-10.73-8.17-14.58-15.03-3.86-6.87-5.79-14.94-5.79-24.22,0-13.21,3.87-23.89,11.61-32.06,7.74-8.16,18.42-12.25,32.05-12.25,11.05,0,19.79,1.83,26.19,5.49,6.4,3.65,11.28,8.96,14.63,15.91,3.35,6.95,5.01,15.99,5.01,27.12v3.66Zm-30.12-15.51c-.58-6.26-2.12-10.74-4.62-13.44-2.5-2.71-5.78-4.06-9.86-4.06-4.71,0-8.47,2.04-11.28,6.12-1.79,2.55-2.93,6.34-3.41,11.37h29.17Z"/>
</svg>