<?xml version="1.0" encoding="UTF-8"?>
<svg id="_Слой_1" data-name="Слой 1" xmlns="http://www.w3.org/2000/svg" viewBox="0 0 159.79 196.7">
  <defs>
    <style>
      .cls-1 {
        letter-spacing: .4em;
      }

      .cls-2 {
        fill: #bf7c1b;
      }

      .cls-3, .cls-4, .cls-5 {
        fill: #21304e;
      }

      .cls-6 {
        fill: #a2aaad;
      }

      .cls-4 {
        font-size: 40.7px;
        letter-spacing: .15em;
      }

      .cls-4, .cls-5 {
        font-family: Onest-SemiBold, Onest;
        font-variation-settings: 'wght' 600;
        font-weight: 600;
      }

      .cls-5 {
        font-size: 22.15px;
      }

      .cls-7 {
        letter-spacing: .42em;
      }
    </style>
  </defs>
  <text class="cls-4" transform="translate(0 159.64)"><tspan x="0" y="0">AXION</tspan></text>
  <text class="cls-5" transform="translate(33.93 189.97)"><tspan class="cls-7" x="0" y="0">L</tspan><tspan class="cls-1" x="22.3" y="0">ABS</tspan></text>
  <g>
    <g>
      <path class="cls-3" d="m123.63,106.18c-1.18-1.25-2.23-3.08-3.17-5.48l-8.41-22.85c-.22-.6-.94-.84-1.47-.47-4.61,3.14-9.83,6.32-15.73,9.5-1.12.6-2.23,1.18-3.33,1.74-.44.22-.65.74-.48,1.2l3.35,9.57c.82,2.4.97,4.42.44,6.05-.53,1.64-2.09,2.84-4.67,3.6l-2.99.82v3.27h44.75v-3.27l-2.64-.66c-2.58-.76-4.46-1.77-5.64-3.03Z"/>
      <path class="cls-3" d="m28.51,105.44c-1.35,1.31-3.26,2.29-5.73,2.95l-4.76,1.31v3.44h26.95v-3.44l-3.88-1.15c-2.58-.87-4.05-2.07-4.4-3.6-.16-.71-.19-2.37-.09-3.28.06-.53-.33-1-.86-1.07-1.19-.16-2.05-.36-3.15-.61-.47-.11-.93.14-1.13.57-.73,1.65-1.91,3.84-2.97,4.87Z"/>
      <path class="cls-3" d="m46.38,73.8h38.93l1.36,3.89c.19.56.83.82,1.36.56.39-.19.77-.37,1.16-.57,6.59-3.28,12.65-6.93,18.04-10.76.36-.26.51-.73.35-1.15L83.37,0h-14.62l-33.17,88.81c-.22.58-.13,1.19.47,1.32.98.21,2.3.55,3.38.63.44.03.85-.24,1-.65l5.94-16.3Zm20.08-54l17.26,49.26h-35.58l18.32-49.26Z"/>
      <path class="cls-6" d="m136.8,30.78c-.08-.17-.41-.67-.73-1.12-.23-.33-.73-.26-.87.11l-1.25,3.4c-.07.2-.07.43-.01.63.07.22.13.45.18.68,1.79,8.37-8.15,21.92-24.88,33.95-5.53,3.98-11.81,7.79-18.65,11.19-.72.36-1.44.7-2.15,1.04-18.55,8.9-35.18,12.69-46.86,12.07-1.8-.1-3.47-.3-5.02-.6-5.76-1.12-9.75-3.64-11.4-7.45-4.05-9.33.88-25.55,23.35-39.36.18-.11.32-.27.4-.46l.82-2.01c-26.75,15.79-34.65,34.2-28.31,46.23,2.35,4.46,6.84,7.48,12.9,9.02,1.63.42,3.38.72,5.23.92,13.02,1.39,31.2-2.64,50.92-12.56,1.36-.68,2.73-1.39,4.1-2.13,6.35-3.42,11.91-6.84,16.77-10.21,24.41-16.97,30.67-32.92,25.46-43.36Z"/>
    </g>
    <circle class="cls-2" cx="122.44" cy="25.42" r="10.9"/>
    <path class="cls-6" d="m108.7,23.8c-3.98.35-8.21.96-12.59,1.83-.27.05-.45.32-.39.59l.21.96c.06.26.31.43.57.38,4.3-.81,8.45-1.35,12.31-1.62.26-.02.46-.24.45-.5l-.03-1.16c0-.29-.25-.51-.53-.48Z"/>
  </g>
</svg>