<svg xmlns="http://www.w3.org/2000/svg" viewBox="0 0 451.3 128.4" fill="#fff"><path d="M232.2 59.4c-.4 3.1-3.2 5.3-6.2 5.3h-34.6c-.8 0-1.4-.6-1.4-1.4V52.6h36.2c3.6 0 6.5 3.1 6 6.8m0-23.2c-.4 3.1-3.2 5.3-6.2 5.3h-36V30.6c0-.8.6-1.4 1.4-1.4h34.8c3.6.1 6.5 3.3 6 7m11.2 22.4c0-4.3-1.6-8.5-4.5-11.6 2.9-3.2 4.5-7.3 4.5-11.6 0-9.5-7.7-17.2-17.2-17.2h-41.8c-3 0-5.5 2.5-5.5 5.5v46.7c0 3 2.5 5.5 5.5 5.5h41.8c9.5-.1 17.2-7.8 17.2-17.3m67.8 15.9v-9.7H268c-3.4 0-6.1-2.7-6.1-6.1v-6.1h47.9c.8 0 1.4-.6 1.4-1.4v-8.4c0-.8-.6-1.4-1.4-1.4H262v-6.1c0-3.4 2.7-6.1 6.1-6.1h43.2v-9.7c0-.8-.6-1.4-1.4-1.4h-41.8c-9.5 0-17.2 7.7-17.2 17.2v23.3c0 9.5 7.7 17.2 17.2 17.2h41.8c.7 0 1.3-.6 1.3-1.3m71.4-38.8c.2-9.6-8-17.5-17.6-17.5h-42.2c-.8 0-1.4.6-1.4 1.4v9.7h44c3.6 0 6.5 3.2 6 6.9-.4 3.1-3.2 5.3-6.2 5.3h-29.9c-9.4 0-17 7.6-17.2 16.9-.2 9.6 8 17.5 17.6 17.5H378c.8 0 1.4-.6 1.4-1.4v-9.7h-44c-3.6 0-6.5-3.2-6-6.9.4-3.1 3.1-5.3 6.2-5.3h29.9c9.3 0 17-7.6 17.1-16.9m57.5 27.6c0 .8-.6 1.4-1.4 1.4h-34.6c-3.1 0-5.8-2.2-6.2-5.3-.5-3.7 2.4-6.9 6-6.9h36.2v10.8zm11.2 7v-35c0-9.5-7.7-17.2-17.2-17.2h-42.6c-.8 0-1.4.6-1.4 1.4v9.7h44c3.4 0 6.1 2.7 6.1 6.1v6.1H404c-9.4 0-17 7.6-17.2 16.9-.2 9.6 8 17.5 17.6 17.5h41.3c3.1 0 5.6-2.4 5.6-5.5M443.3 110.4V99.7h4.2v-2h-10.7v2h4.2v10.8h2.3zm-46.4-6.4c0-1.2.4-2.3 1.2-3.1.8-.8 1.8-1.3 2.9-1.3s2.1.4 2.9 1.3c.8.8 1.2 1.9 1.2 3.1 0 1.3-.4 2.4-1.2 3.3-.8.9-1.8 1.3-2.9 1.3s-2.1-.4-2.9-1.3c-.8-1-1.2-2-1.2-3.3m-4.3 6.4V105h2c.2 1.6.9 3 2.1 4 1.2 1 2.6 1.6 4.2 1.6 1.8 0 3.4-.6 4.6-1.9 1.2-1.3 1.9-2.9 1.9-4.8 0-1.8-.6-3.4-1.9-4.6-1.2-1.3-2.8-1.9-4.6-1.9-1.7 0-3.1.5-4.3 1.6-1.2 1.1-1.9 2.4-2.1 4h-2v-5.4h-2.3v12.8h2.4zm-44.9.2c3.5-.1 5-3.1 5-9.4v-1.5h3.4v10.8h2.3V97.7h-7.9v3.5c0 4.9-.8 7-2.8 7.3v2.1zm-40.3-6.6c0-1.2.4-2.3 1.2-3.1s1.8-1.3 3-1.3 2.2.4 3 1.3 1.2 1.9 1.2 3.1c0 1.3-.4 2.4-1.2 3.3-.8.9-1.8 1.3-3 1.3s-2.2-.4-3-1.3c-.7-1-1.2-2-1.2-3.3m-2.3 0c0 1.9.6 3.5 1.9 4.8 1.3 1.3 2.8 1.9 4.7 1.9s3.4-.6 4.7-1.9c1.3-1.3 1.9-2.9 1.9-4.8 0-1.8-.6-3.4-1.9-4.6-1.3-1.3-2.8-1.9-4.7-1.9s-3.4.6-4.7 1.9c-1.3 1.2-1.9 2.7-1.9 4.6m-41.4 0c0 1.9.6 3.5 1.8 4.8s2.8 1.9 4.8 1.9 3.7-.7 5-2.1l-1.2-1.7c-1.1 1.1-2.3 1.6-3.7 1.6-1.3 0-2.4-.4-3.1-1.3-.8-.9-1.2-2-1.2-3.2 0-1.2.4-2.3 1.1-3.1.8-.8 1.8-1.3 3.2-1.3 1.2 0 2.6.6 3.5 1.3l1.1-1.7c-1.2-1.2-2.8-1.7-4.7-1.7-1.9 0-3.5.6-4.7 1.9-1.3 1.2-1.9 2.7-1.9 4.6m-36.8.6h2.2c1.3 0 2 .8 2 1.9 0 1.2-.7 1.9-2 1.9h-2.2v-3.8zm2.6 5.8c1.2 0 2.1-.4 2.8-1.1.7-.7 1.1-1.7 1.1-2.8 0-1.2-.4-2.2-1.1-2.9-.7-.7-1.7-1.1-2.9-1.1h-2.6v-3h5.5v-2h-7.8v12.8h5zm-41.7-8.5c.1-.5.3-1.1.5-2l.5 2 1.1 3.4h-3.3l1.2-3.4zm-2.8 8.5l1.1-3.3h4.5l1.1 3.3h2.4l-4.5-12.8h-2.4l-4.5 12.8h2.3zM116 40.8v8.6c0 1.2-.8 2.3-2 2.6l-4.3 1.2c-1.6.4-3.1-.8-3.1-2.4V42c0-8.4-6.8-15.2-15.2-15.2H43.3c-8.4 0-15.2 6.8-15.2 15.2v8.8c0 1.6-1.6 2.8-3.1 2.4L20.7 52c-1.2-.3-2-1.4-2-2.6v-8.6c0-12.9 10.5-23.4 23.4-23.4h50.4c13 0 23.5 10.5 23.5 23.4zM80.5 64.2c0 7.2-5.9 13.1-13.1 13.1s-13.1-5.9-13.1-13.1c0-7.2 5.9-13.1 13.1-13.1S80.5 57 80.5 64.2zm-7.9 0c0-2.9-2.4-5.2-5.2-5.2-2.9 0-5.2 2.4-5.2 5.2 0 2.9 2.4 5.2 5.2 5.2 2.8 0 5.2-2.3 5.2-5.2zM36.5 74.4c1 10.9 10.2 19.4 21.3 19.4h19.1c11.2 0 20.3-8.5 21.3-19.4 0-.2 0-2.2-1.9-2.7-1.6-.4-4.8-1.3-4.8-1.3-1.3-.3-2.6.6-2.6 2 0 6.6-5.4 12-12 12H57.8c-6.6 0-12-5.4-12-12 0-1.3-1.3-2.3-2.6-2 0 0-3.2.9-4.8 1.3-1.9.5-1.9 2.4-1.9 2.7zM88.8 56c0 1.4 1.3 2.3 2.6 2 0 0 3.2-.9 4.8-1.3 1.9-.5 2-2.4 1.9-2.7-1-10.9-10.2-19.4-21.3-19.4h-19c-11.2 0-20.3 8.5-21.3 19.4 0 .2 0 2.2 1.9 2.7 1.6.4 4.8 1.3 4.8 1.3 1.3.3 2.6-.6 2.6-2 0-6.6 5.4-12 12-12h19.1c6.6.1 11.9 5.4 11.9 12zM114 76.4l-4.3-1.2c-1.6-.4-3.1.8-3.1 2.4v8.8c0 8.4-6.8 15.2-15.2 15.2H43.3c-8.4 0-15.2-6.8-15.2-15.2v-8.8c0-1.6-1.6-2.8-3.1-2.4l-4.3 1.2c-1.2.3-2 1.4-2 2.6v8.6c0 12.9 10.5 23.4 23.4 23.4h50.4c12.9 0 23.4-10.5 23.4-23.4V79c.1-1.2-.7-2.3-1.9-2.6zm20.5-12.2c5.2 6.9 8 15.3 8 24 0 22.2-18 40.2-40.2 40.2H16c-8.8 0-16-7.2-16-16V16C0 7.2 7.2 0 16 0h86.2c22.2 0 40.2 18 40.2 40.2.1 8.7-2.8 17.1-7.9 24zm-9.6 3.2l-.2-.2c-1.6-1.7-1.6-4.3 0-6l.2-.2c6.3-6.9 9.2-16.3 7.8-25.7-2.4-15.1-15.9-25.9-31.1-25.9H18.4c-4.9 0-8.9 4-8.9 8.9V110c0 4.9 4 8.9 8.9 8.9h83.2c15.3 0 28.8-10.8 31.1-25.9 1.4-9.4-1.5-18.7-7.8-25.6z"/></svg>